<?xml version="1.0" encoding="UTF-8"?>
<!DOCTYPE svg PUBLIC "-//W3C//DTD SVG 1.1//EN" "http://www.w3.org/Graphics/SVG/1.1/DTD/svg11.dtd">
<!-- Creator: CorelDRAW 2020 (64-Bit) -->
<svg xmlns="http://www.w3.org/2000/svg" xml:space="preserve" width="75mm" height="75mm" version="1.1" style="shape-rendering:geometricPrecision; text-rendering:geometricPrecision; image-rendering:optimizeQuality; fill-rule:evenodd; clip-rule:evenodd"
viewBox="0 0 7500 7500"
 xmlns:xlink="http://www.w3.org/1999/xlink"
 xmlns:xodm="http://www.corel.com/coreldraw/odm/2003">
 <defs>
  <style type="text/css">
   <![CDATA[
    .str0 {stroke:white;stroke-width:16.93;stroke-miterlimit:22.9256}
    .str2 {stroke:black;stroke-width:20;stroke-miterlimit:22.9256}
    .str1 {stroke:black;stroke-width:20;stroke-miterlimit:22.9256}
    .str3 {stroke:black;stroke-width:20;stroke-miterlimit:22.9256}
    .fil1 {fill:black}
    .fil2 {fill:black}
    .fil0 {fill:white}
    .fil3 {fill:white;fill-rule:nonzero}
   ]]>
  </style>
 </defs>
 <g id="Слой_x0020_1">
  <metadata id="CorelCorpID_0Corel-Layer"/>
  <g id="_2148252919968">
   <g>
    <path class="fil0 str0" d="M804.86 2464.54c608.73,-162.29 980.72,109.36 1365.25,74.08 331.61,-28.23 535.36,-559.81 1486.97,-550.35 982.62,9.77 1197.39,523.05 1529.29,608.56 400.07,103.07 732.06,-226.48 1486.96,-21.15 851.38,231.57 564.68,1392.44 566.05,1495.8 -71.68,312.99 -95.18,507.73 -163.49,722.77 -65.06,204.81 -165.26,418.66 -382.65,762.04 -53.69,84.82 -121.46,168.78 -198.54,269.29 -153.51,200.68 -345.28,379.07 -533.99,540.89 -17.42,14.93 -35.17,75.87 -52.86,90.07 -14.98,12.02 -71.11,63.52 -78.8,61.08 -10.91,-3.47 28.78,-64.12 18.53,-56.78 -904.21,646.89 -2130.22,878.26 -3279.11,510.45 -11.66,-3.73 26.92,59.26 15.28,55.41 -17.51,-5.78 -112.87,-37.84 -130.34,-43.9 -19.18,-6.66 -10.88,-54.56 -30.07,-61.99 -79.79,-30.93 -159.41,-67.67 -237.76,-103.57 -404.13,-287.74 -859.46,-552.48 -1320.99,-1126.46 -376.95,-468.79 -637.06,-1052.39 -698.5,-1771.95 -84.43,-988.8 113.94,-1314.38 638.77,-1454.29z"/>
    <g>
     <path class="fil1 str1" d="M5588.46 3557.91c-19.29,39.86 -33.15,92.84 -40.07,155.74 -4.08,37.08 -29.64,82.75 -31.19,115.38 -2.2,46.21 -25.21,191.86 -31.31,191.82 -8.66,-0.07 -18.65,-45.11 -30.36,-41.62 -39.02,11.66 8.49,194.2 34.94,277.82 7.13,22.53 2.57,63.91 32.74,57.74 1.13,-0.23 1.62,7.18 16.33,-26.95 2.48,-5.74 9.99,-6.57 10.28,-6.61 0,0 27.93,132.37 54.05,173.9 7.52,11.95 35.38,38.3 60.88,57.95 25.48,19.61 53.95,26.28 54.67,27.34 5.4,7.88 -59.49,-0.27 -59.49,-0.27 1.34,43.88 3.04,120.02 -2.74,196.51 -1.43,18.84 -30.13,174.3 -32.45,177.84 -19.11,29.27 -246.74,180.2 -446.56,226.56l-25.3 -29.89 -27.1 -143.23 -103.25 -108.42c-30.53,-95.89 -81.81,-182.54 -136.96,-268.21 36.85,-44.97 136.56,-175.8 136.56,-175.8 -35.82,-8.39 -287.69,118.56 -228.98,75.92l173.18 -125.78c-83.9,10.69 -156.94,3.8 -223.2,-21.37 -14.84,-5.63 332.12,76.2 520.07,-386.32 187.95,-462.52 100.56,-470.35 335.22,-694.46 243.29,-232.34 606.3,-141.02 766.45,121.51 96.57,201.03 136.52,380.42 242.2,562.74 92.54,159.64 201.59,273.5 302.13,661.49 6.21,23.99 46.01,158.7 169.39,222.01 -81.56,281.4 -210.15,523.96 -412.39,814.23l-163.62 -398.89c-27.2,-66.32 -127.6,-149.21 -184.42,-264.69 -44.74,-169.57 -101.21,-459.58 -69.15,-507.91 8.15,-12.28 27.43,-22.71 49.19,-50.72 21.13,-27.2 74.53,-188.13 74.61,-188 13.08,22.52 37.37,13.09 40.4,-7.3 1.94,-13.12 -6.39,-31.38 -17.77,-51.49 -38.71,-68.4 -86.18,-187.17 -87.39,-225.92 -1.72,-55.05 -31.64,-116.91 -44.48,-166.95 -20.92,-81.56 -53.68,-140.67 -93.4,-193.21 -54.97,-72.74 -134.44,-197.35 -207.85,-209.99 -71.58,-12.33 -72.37,-159.88 -73.52,-118.87 -1.35,48.16 18.87,109.26 -11,113.58 -45.93,6.66 -129.69,25.39 -156.7,41.37 -29.54,17.47 -103.9,82.01 -132.64,141.42z"/>
     <path class="fil1 str2" d="M6019.5 3779.17c-4.94,4.76 11.06,29.88 14.87,29.49 11.79,-1.2 104.29,-42.22 167.4,-33.83 14.15,1.87 79.59,11.86 84.88,11.28 10.59,-1.18 -57.17,-39.59 -73.4,-45.27 -33,-11.56 -106.2,5.41 -138.7,15.14 -14.02,4.2 -39.1,7.79 -55.05,23.19z"/>
     <path class="fil1 str2" d="M5819.19 3778.69c-24.16,-5.44 -49.41,-11.6 -73.91,-15.14 -17.81,-2.58 -114.47,-7.7 -128.22,-0.6 -23.65,12.22 -67.04,53.65 -59.37,53.43 6.11,-0.18 26.69,-9.07 67.09,-23.65 14.04,-5.06 114.33,3.27 130.59,6.43 22,4.29 44.89,17.89 51.35,17.22 11.42,-1.19 16.59,-36.77 12.47,-37.69z"/>
     <path class="fil1 str2" d="M5582.62 3933.33c2.97,-18.94 66.4,-56.16 100.32,-70.05 22.16,-9.08 87.94,-15.69 102.58,16.42 8.13,17.83 4.94,39.38 -5.24,52.23 -14.77,18.63 -99.35,6.53 -117.7,6.4 -38.68,-0.26 -82.75,12.77 -79.96,-5z"/>
     <path class="fil1 str2" d="M6087.91 3846.34c34.12,-11.95 55.15,-4.58 91.49,3.26 29,6.26 56.26,22.25 69.03,54.04 3.67,9.13 -42.34,-4.18 -73.19,3.99 -32.73,8.66 -44.14,23.75 -96.96,17.39 -20.11,-2.42 -42.14,-9.67 -43.56,-26.1 -2.05,-23.62 30.42,-44.6 53.19,-52.58z"/>
     <path class="fil1 str2" d="M6115.51 3845.65c-2.62,-9.07 -55.81,-4.82 -96.32,9.53 -26.86,9.52 -45.33,27.32 -45.33,27.32 6.79,45.66 9.07,127.26 12.72,137.23 6.64,18.14 24.18,29.77 28.9,52.71 3.35,16.36 -6.54,29.01 -15.48,31.5 -5.6,1.56 -7.5,-16.44 -20.05,-15.3 -14.88,1.34 -10.72,17.34 -13.38,19.79 -1.87,1.72 -7.01,2.57 -12.24,3.13 -7.87,0.84 -15.8,0.76 -13.21,1.93 24.99,11.28 71.86,8.09 88.64,-10.25 13.6,-14.86 8.64,-31.08 6.68,-38.57 -5.32,-20.39 -32.71,-42.13 -31.81,-58.96 1.68,-31.25 -2.28,-61.24 6.88,-89.75 18.1,-56.31 107.49,-58.26 104,-70.31z"/>
     <path class="fil1 str2" d="M5759.55 4257.66c0.44,-2.2 25.08,-12.36 53.78,-24.17 31.03,-12.77 64.07,-33.2 73.89,-33.34 18.75,-0.27 37.9,14.78 56.84,22.15 18.32,-4.56 33.99,-24.37 49.27,-22.96 7.64,0.71 35.12,17.71 62.71,31.03 27.77,13.41 56.44,23.38 55.71,27.73 -1.41,8.38 -12.45,12.81 -22.1,20.96 -30.3,25.56 -119.84,49.63 -145.44,49.49 -41.6,-0.21 -134.78,-28.17 -162.01,-49.42 -12.2,-9.51 -23.97,-14.87 -22.65,-21.47z"/>
     <path class="fil1 str2" d="M5477.25 4077.97c2.3,19.96 -4.57,28.89 -2.71,44.63 3.02,25.7 11.06,40.51 13.77,57.03 2.6,15.79 7.14,29.95 0.27,34.24 -6.92,4.31 -11.37,2.88 -16.4,-9.35 -8.26,-20.11 -9.67,-40.72 -11.06,-63.18 -1.35,-22 0.46,-39.76 2.65,-55.79 2.1,-15.4 -11.73,-54.74 -5.16,-57.26 8.56,-3.28 16.95,35.07 18.64,49.68z"/>
     <path class="fil1 str2" d="M6266.4 4461.18c-98.6,74.31 -155.95,90.05 -252.53,99.25 -36.1,3.44 -77.26,5.59 -129.13,3.36 -27.56,-1.18 53.82,8.06 80.9,9.2 57.18,2.39 114.62,-1.9 168.95,-17.79 30.84,-9.01 45.81,-16.04 75.46,-28.21 19.52,-8.02 39.36,-26.81 59.04,-40.21l-2.69 -25.6z"/>
     <path class="fil1 str2" d="M5498.03 5058.34c50.94,52.42 101.87,104.84 152.81,157.26 -20.58,5.64 -51.84,13.66 -72.42,19.3 -103.82,-38.68 -195.26,-79.02 -299.09,-117.7 62.74,-40.49 125.48,-80.97 188.21,-121.47 61.1,73.29 122.2,146.59 183.3,219.87 290.39,33.16 611.57,88.64 931.42,-50.35 17.35,82.94 37.69,212.4 51.3,308.63 6.73,47.58 19.88,121.33 32.64,171.6 0,0 -128.82,188.18 -298.7,383.69 -158.76,182.73 -408.54,386.81 -442.67,416.1 75.96,-367.74 -369.1,-776.64 -475.01,-925.51 45.23,-94.51 78.07,-162.96 128.6,-284.86 23.16,-5.41 56.99,-13.19 80.14,-18.6l-160.53 -157.96z"/>
     <path class="fil2 str2" d="M6312.69 3977.77c0,0 -28.93,163.41 -28.4,216.7 0.54,53.29 26.55,151.44 32.75,154 6.2,2.57 -17.29,-93.35 -1.27,-158.43 16.02,-65.07 37.62,-77.34 40.31,-106.47 2.7,-29.12 -48.75,-124.53 -43.39,-105.8z"/>
     <path class="fil1 str2" d="M5894.28 4114.55c10.57,-2.42 -0.36,-18.88 -12.01,-18.39 -11.66,0.48 -19.94,17.04 -12.49,18 10.69,1.37 13.46,2.91 24.5,0.39z"/>
     <path class="fil2 str2" d="M5949.87 5146.9c-53.47,-7.81 -114.02,-17.06 -177.19,-20.53 -28.42,-1.56 -204.24,-6.07 -194.38,10.95 5.32,9.17 12.32,25.03 27.4,24.14 52.43,-3.1 136.8,-1.79 149.15,-1.05 26.28,1.56 176.65,25.38 176.65,25.38 19.45,5.05 44.14,29.33 58.35,15.13 12.33,-12.32 -19.16,-50.98 -39.98,-54.02z"/>
     <path class="fil2 str2" d="M6155.28 5154.46c-13.63,10.85 -38.59,27.71 -29.74,41.68 9.31,14.71 51.83,-14.33 79.34,-21.85 32.65,-8.94 127.63,-13.02 165.87,-9.87 16.42,1.35 94.01,3.96 84.16,-8.89 -4.3,-5.6 5.66,-15.91 -6.71,-18.66 -38,-8.45 -88.83,-6.94 -106.13,-9.42 -45.11,-6.48 -93.31,5.84 -137.71,6.73 -18.15,0.36 -35.51,9.48 -49.08,20.28z"/>
    </g>
    <g>
     <path class="fil1 str2" d="M3898.37 3279.55c-8.8,-11.89 -4.42,-63.28 26.26,-73.51 35.63,-11.88 156.34,22.83 170.59,60.73 7.76,20.63 -21.02,1.96 -47.24,11.61 -65.16,23.99 -133.28,23.22 -149.61,1.17z"/>
     <path class="fil1 str2" d="M3577.43 3268.06c25.95,-99.96 -115.37,-91.78 -182.81,-38.76 -12.25,9.64 -71.75,45.82 -68.85,52.79 6.03,14.48 101.97,-11.13 139.08,-1.46 23.15,6.03 55.46,4.37 80.66,3.72 22.36,-0.57 30.11,-9.33 31.92,-16.29z"/>
     <path class="fil1 str3" d="M3948.78 3753.15c7.8,-2.11 -21.92,21.31 -71.13,44.33 -19.95,9.33 -83.9,20.41 -128.58,19.84 -47.12,-0.61 -130.15,-17.76 -181.7,-42.63 -36.46,-17.58 -59.38,-30.63 -53.5,-29.14 131.95,33.42 165.42,40.34 232.21,40.24 57.94,-0.1 120.06,-10.3 202.7,-32.64z"/>
     <path class="fil1 str3" d="M4162.85 3842.45c-40.74,84.03 -242.6,259.67 -330.02,284.75 -73.04,20.96 -153.94,20.37 -227.97,3.24 -57.94,-13.4 -127.63,-132.8 -213.77,-241.55 -4.42,-5.58 1.89,23.89 1.99,35.19 49.13,84.7 62.32,122.06 52.03,131.73 -20.15,18.95 -158.09,-106.94 -185.99,-124.17 -39,-24.09 45.56,81.28 138,151.41 69.87,53.01 152.96,82.77 173.16,88.45 80.81,22.75 185.5,25.45 274.43,-8.64 31.82,-12.2 114.52,-29.48 208.08,-99.02 3.44,-32.57 9.72,-53 18.84,-67.37 25.19,-39.73 59.79,-63.38 90.34,-107.26 54.54,-78.32 61.89,-147.25 73.1,-195.64 5.26,-22.74 21.29,-40.7 20.25,-40.75 -9.22,-0.42 -86.04,176.36 -92.47,189.63z"/>
     <path class="fil1 str2" d="M3973.47 3169.69c27.04,-7.74 54.71,-3.55 94.7,-1.17 22.88,1.35 48.39,7.22 86.48,20.03 -17.26,-18.67 -27.77,-33.57 -44.66,-48.52 -9.88,-8.76 -20.03,-17.15 -39.92,-24.87 -39.03,-8.35 -60.14,-7.74 -168.34,18.81 -8.24,2.02 -20.75,11.33 -8.43,33.66 7.99,14.49 63.53,5.56 80.17,2.06z"/>
     <path class="fil1 str2" d="M3539.44 3196.35c-1.55,2.74 94.72,39.5 103.05,96.71 8.32,57.21 -1.89,83.96 2.19,84.68 4.08,0.73 18.88,-45.01 20.61,-78.69 1.72,-33.68 -7.76,-55.68 -29.32,-68.05 -21.56,-12.37 -96.53,-34.65 -96.53,-34.65z"/>
     <path class="fil1 str2" d="M3851.8 3257.12c14.95,-22.19 72.23,-58.49 82.99,-49.41 1.07,0.91 -31.6,15.99 -51.78,45.93 -22.05,32.73 -41.39,146.66 -30.89,188.31 2.61,10.33 22.78,20.55 36.92,38.72 20.1,25.81 30.46,60.15 10.15,92.36 -17.72,28.11 -64.4,30.27 -138.64,33.53 -49.84,2.2 -135.37,-13.29 -150.03,-41.9 -14.66,-28.61 6.83,-69.43 10.93,-66.62 0,0 -21.44,42.23 3.74,67.36 11.16,11.15 45.31,17.01 60.63,17.87 4.69,0.27 4.06,-13.43 17.09,-13.46 12.99,-0.02 14.27,7.12 20.18,11.86 9.69,7.77 18.32,12.7 40.2,13.68 43.61,1.94 43.62,-28.05 51.89,-30.02 11.04,-2.63 13.76,11.03 19.23,11.38 43.54,2.8 49.6,-27 41.53,-51.81 -12.75,-39.18 -63.66,-51.84 -62.6,-77.62 1.41,-34.23 -9.82,-118.56 38.46,-190.16z"/>
     <path class="fil1 str2" d="M2996.66 3179.5c19.05,16.18 46.01,36.35 57.88,57.53 27.02,48.23 37.71,96.22 35.61,86.16 -5.04,-24.22 28.09,-156.31 42.14,-234.45 13.66,-256.19 14.83,-267.37 47.05,-315.69 16.18,-24.26 62.63,-38.7 112.86,-99.2 52.46,-63.2 115.04,-103.11 136.88,-99.49 36.93,6.14 -22.74,90.22 80.28,29.26 68.33,-40.43 180.72,-51.62 223.23,-37.51 11.51,3.82 96.92,27.15 122.51,20.22 26.44,-7.15 33.55,-0.56 58.64,4.92 48.99,10.72 63.58,40.56 117.63,60.93 133.95,50.5 173.43,253.84 198.65,371.73 24.87,116.29 23.67,309.14 37.57,455.18 2.47,26 16.96,-310.78 -5.48,-543.51 -9.84,-118.17 -59.11,-320.07 -259.65,-442.03 -118.2,-71.43 -223.98,-131.53 -393.5,-118.68 -185.62,1.24 -245.77,56.38 -359.14,123.66 -270.98,220.78 -251.36,415.15 -253.16,680.97z"/>
     <path class="fil1 str2" d="M3373.52 3157.63c32.96,-4.68 65.9,-12.95 98.86,-14.05 42.98,-1.44 85.72,7.2 128.58,10.8 10.8,-0.36 21.6,9.01 32.41,-1.08 -31.28,-58.1 -160.84,-67.69 -219.33,-70.23 -33.38,-1.45 -56.74,-0.77 -99.4,12.97 -43.24,53.15 -74.56,116.15 -74.56,116.15 8.16,5.08 57.72,-41.11 133.44,-54.56z"/>
     <path class="fil1 str2" d="M4134.52 3177.09c12.67,9.52 27.74,22.78 40.62,35.84 24.44,24.77 37.42,37.3 42.1,88.35 0.55,6.05 5.76,-45.38 8.64,-68.07 -3.36,-87.54 -7.3,-169.9 -52.94,-283.07 2.6,90.39 -5.06,101.84 -13.89,159.95 -3.88,25.51 -15.97,40.19 -24.53,67z"/>
     <path class="fil1 str2" d="M4274.46 3242.76c70.21,-31.23 68.53,49.29 37.22,140.81 -8.1,23.67 -11.26,54.71 -11.75,83.62 -0.8,47.33 4.57,93.02 -3.78,117.75 -6.23,11.49 -6.92,20.84 -19.04,35.15 -12.28,14.51 -38.77,35.22 -13.46,37.33 19.89,0.21 13.99,-13.02 25.06,-17.82 13.12,-5.69 22.95,-17.08 20.84,-49.65 4.99,-35.11 9.97,-70.22 14.96,-105.33 9.22,-60.9 56.32,-243.52 -6.95,-264.14 -16.2,-3.3 -30.96,1.42 -43.1,22.28z"/>
     <path class="fil1 str2" d="M3036.65 3184.43c0,0 -83.2,-18.6 -110.83,15.13 -31.33,38.25 1.67,151.76 11.51,194.41 10.83,53.29 7.6,104.43 32.47,159.89 39.14,57.18 42.35,96.27 138.08,99.03 13.08,-20.47 12.87,-60.92 -13.97,-62.39 -74.94,-4.1 -102.72,-52.56 -108.85,-84.27 -20.53,-106.06 102.49,-151.66 69.56,-164.88 -5.08,-2.04 -9.77,14.66 -29.18,26.99 -7.57,4.82 -17.31,9.9 -31.74,8.23 -12.58,-1.45 -61.35,-74.78 -52.08,-144.26 5.41,-40.62 70.63,-50.44 95.03,-47.88z"/>
     <path class="fil1 str2" d="M4021.31 4094.84c-5.05,33.85 -11.8,67.5 -15.13,101.56 -3.51,35.88 -5.02,71.99 -5.4,108.04 -1.57,146.99 28.76,223.45 -45.38,382.48 -12.56,26.94 -11.41,58.09 -14.05,88.05 -2.83,32.16 -0.38,70.12 2.7,99.94 2.91,28.15 2.63,46.86 2.81,81.26 0.09,16.66 10.12,-31.81 7.08,-54.78 -10.56,-79.78 -2.71,-161.16 4.83,-186.06 6.09,-20.11 16.94,-32.1 24.85,-52.99 4.79,-12.61 22.51,-44.57 28.61,-62.95 31.09,-93.58 8.86,-319.3 26.33,-431.35 5.41,-34.63 9.49,-69.46 14.23,-104.2 -10.49,10.33 -20.99,20.66 -31.48,31z"/>
     <path class="fil1 str2" d="M3511.69 3742.89c-6.39,-6.05 30.16,6.12 36.07,7.47 43.73,10 69.9,8.5 91.33,4.12 27.68,-5.66 53.37,-10.38 70.84,-9.91 16.05,0.44 37.88,14.25 58.3,13.87 21.58,-0.4 36.84,-15.61 57.84,-15.47 17.69,0.12 50.29,6.5 74.7,8.41 29.85,2.34 60.55,-5.96 48.9,1.61 -42.02,27.31 -163.56,37.14 -265.36,29.45 -70.48,-5.32 -152.29,-20.31 -172.62,-39.55z"/>
     <path class="fil1" d="M3128.7 4084.1c-15.5,-2.34 -19.85,12.52 -13.31,24.47 54.2,78.69 108.4,157.39 162.61,236.08 0,0 399.76,585.42 662.49,1140.43 17.62,37.21 130.86,288.83 189.07,461.52 52.94,157.05 58.02,216.43 81.13,219.89 18.4,2.75 49.35,-59.03 52.82,-167.93 4.85,-152.42 -8.37,-318.89 -31.49,-518.21 -33.27,-286.81 -141.7,-631.46 -90.21,-647.88 7.9,-2.52 77.06,-54.42 90.96,-101.54 15.6,-52.89 39.31,-72.4 41.64,-100.82 3.11,-37.84 -33.4,-112.82 -45.32,-132.08 -8.71,-14.08 -66.29,-60.76 -93.23,-96.87 -44.26,-59.33 -73.91,-115.65 -78.15,-114.57 -9.3,2.37 12.72,202.17 -16.49,300.04 -17.09,45.33 -53.02,85.08 -61.38,162.73 -14.65,135.99 -16.28,259.04 -19.66,272.69 -1.48,5.98 -74.91,-201.68 -112.36,-302.52 -6.85,-82.48 -0.72,-141.18 -108.05,-198.8 -224.27,-120.51 -418.37,-272.51 -611.07,-436.63z"/>
     <path class="fil2" d="M3525.25 6433.11c12.66,25.32 33.74,58.37 42.68,91.74 15.48,57.82 24.85,120.03 24.85,120.03 52.18,26.01 199.83,132.82 351.41,156.63 144,22.61 276.75,-23.31 280.88,-18.95 23.89,25.28 141.52,148.02 159.67,161.6 11.97,8.95 40.68,15.86 61.29,23.51 118.99,22.46 237.49,5.25 356.3,7.87 71.79,-0.77 160.17,3.29 231.98,2.52 -325.85,127.13 -934.58,236.03 -1264.85,245.28 -103.13,2.88 -367.61,-17.52 -620.7,-56.24 -279.81,-42.8 -545.73,-105.52 -564.27,-128.45 -28.99,-35.88 -24.72,-61.19 -50.37,-114.45 -154.27,-363.35 -258.74,-644.08 -335.39,-945.29 -34.9,-137.15 -64.02,-284.69 -89.07,-423.38 -30.93,-171.24 -85.62,-340.73 -63.04,-503.63 26.06,-188.03 43.53,-241.9 222.16,-378.35 97.44,-5.52 202.37,15.97 295.42,87.04 167.2,113.54 336.78,238.2 439.32,419.15 131.57,232.2 155.17,546.46 284.79,819.67 73.13,154.16 149.47,298.15 236.94,433.7z"/>
     <path class="fil2 str3" d="M4157.2 6402.58c-51.38,-27.33 -154.93,-2.4 -275.46,-14.23 0,0 -8.4,-99.76 17.44,-112.56 35.09,-17.38 386.38,29.98 579.56,44.96 73.83,-0.18 147.66,-0.36 221.49,-0.54 37.41,-1.64 97.72,4.95 161.91,-3.69 30.68,-4.13 50.72,-13.75 81.26,-31.21 69.32,-39.64 126.83,-55.04 161.45,-85.03 9.08,-7.87 18.97,-43.14 -3.37,-60.3 -31.75,-24.38 -61.89,-12.9 -74.52,-18.4 -1.97,-31.9 1.06,-72.04 -33.4,-86.07 -19.92,-8.11 -64.79,-5.48 -105.14,26.16 -3.94,3.09 -8.32,-36.19 -9.92,-43.45 -2.97,-0.34 1.85,-243.02 3.33,-477.31 1.29,-205.8 -13.68,-415.5 -21.7,-477.8 -40.82,-254.53 -222.05,-471.04 -212.08,-482.67 20.58,-24.04 183.26,61.59 235.87,134.86 40.37,56.21 54.84,127.09 82.26,190.64 33.62,33.64 75.22,55 103.91,99.08 13.21,20.3 1.12,43.97 5.71,67.03 3.79,19.07 23.05,35.41 30.11,49.31 6.37,12.55 -4.55,27.81 -6.83,41.72 78.68,106.26 162.54,253.54 283.41,378.34 183.55,189.51 318.69,366.59 436.03,595.1 72.32,140.83 60.98,345.25 6.31,390.46 -49.8,41.2 -459.31,331.86 -807.1,446.25 -129.87,42.72 -434.95,72.35 -568.38,61.36 -42.44,-3.49 -93.97,5.26 -145.02,-15.19 -54,-21.62 -79.24,-86.57 -142.15,-222.18 45.8,-30.75 54.26,-45.34 66.79,-76.23 43.86,-108.09 24.66,-267.11 -71.77,-318.41z"/>
     <path class="fil2" d="M2244.27 4708.74c1.73,4.04 235.82,8.49 398.22,137.67 125.16,99.54 253.24,213.97 313.6,310.66 111.17,178.09 143.49,478.57 243.89,773.36 52.64,154.58 171.21,262.88 250.97,438.01 5.4,11.86 477.84,29.2 474.7,13.82 -16.26,-79.67 7.04,-92.67 27.67,-96.1 38.08,-6.33 122.22,8.64 199.41,19.08 96.99,13.11 388.26,30.15 432.68,24.78 34.48,-4.17 142.13,-201.41 164.35,-234.33 15.34,-22.72 30.31,-80.21 71.65,-81.54 27,-0.88 78.9,34.83 78.9,34.55 0.66,-99.35 19.99,-205.11 23.77,-303.59 9.78,-254.66 -11.49,-538.01 -48.82,-684.16 -43.58,-170.56 -108.97,-328.93 -200.98,-486.77 -98.81,-44.55 -193.13,-75.57 -301.96,-98.93 12.84,40.63 26.87,65.1 42.18,115.81 157.67,403.59 139.79,626.28 149.97,1023.84 2.32,90.63 4.77,591.35 -45.68,660.3 -32.76,44.78 -88.72,55.17 -87.22,66.29 13.38,98.56 -127.86,27.8 -287.29,-2.31 -105.14,-19.85 -125.52,52.81 -175.69,-80 -57.27,-151.61 -238.24,-552.45 -259.44,-580.2 -50.46,-66.04 -112.38,-178.15 -200.76,-302.04 -133.93,-187.72 -333.13,-406.25 -413.03,-573.53 -11.83,-24.77 65.04,-95.13 59.85,-96.43 1.17,-0.96 -133.28,6.47 -149.03,-19.63 -140.01,-231.9 -156.82,-325.27 -175.99,-329.3 -57.44,-12.08 -605.12,305.85 -585.92,350.69z"/>
     <path class="fil2" d="M3157.38 4069.91c10.45,6.39 25.84,35.88 32.81,18.23 1.72,-4.36 4.82,-70.14 4.82,-70.14 0,0 -104.27,-22.15 -149.11,47.54 -44.83,69.69 -163.7,256.74 -165.3,263.63 -9.08,38.99 80.76,262.34 144.59,338.14 11.71,13.91 168.9,24.93 168.9,24.93 -2.67,21.87 -94.4,83.47 -66.79,125.09 149.53,225.36 569.81,709.41 701.5,1026.67 87.02,209.64 139.07,310.08 172.41,388.32 4.96,11.66 419.6,44.54 454.71,41.61 127.15,-10.62 49.51,-1136.5 47.5,-1169 -11.63,-188.16 -92.2,-427.31 -166.28,-634.37 -50.72,-30.28 -101.38,-48.34 -161.09,-57.12l74.55 71.31c17.64,52.51 56.8,93.41 52.8,149.18 -23.91,94.1 -68.87,175.4 -128.43,231.14 61.75,383.69 177.49,889.99 109.12,1273.84 -7.87,44.16 -56.44,72.67 -72.93,70.77 -4.52,-0.52 -45.78,-3.71 -63.71,-60.29 -40.18,-126.78 -122.22,-372.86 -248.15,-630.32 -137.71,-281.55 -279.2,-544.8 -433.31,-791.44 -122.5,-196.06 -247.83,-380.32 -384.43,-592.94 -26.52,-41.28 18.15,-97.68 75.82,-64.78z"/>
    </g>
    <g>
     <path class="fil2 str2" d="M964.17 3494.98c6.02,36.67 28.37,-43.28 84.28,-89.68 32.23,-26.74 154,-82.84 198.79,-49.69 26.25,19.42 58.28,60.11 83.2,91.83 40.88,52.05 113.08,85.67 138.3,96.16 25.81,10.74 66.58,15.34 78.86,21.61 7.82,3.99 28.27,42.74 44.3,62.67 21.11,26.23 73.06,68.58 78.88,82.11 3.18,7.42 1.85,43.59 10.8,71.31 13.38,41.49 18.91,79.22 38.89,119.93 4.68,9.53 19.82,2.34 25.94,-5.4 6.12,-7.74 9.7,-85.14 14.04,-89.68 53.52,-55.92 102.54,-102.96 180.73,-96.17 115.19,10 62.73,207.35 -28.56,298.53 -12.89,12.88 -25.34,32.73 -28.67,44.48 -8.06,28.47 -4.19,49.39 -30.21,58.1 -31.77,10.63 -54.53,-38.41 -73.3,-54.54 -10.03,-8.63 68.33,139.96 93,195.82 10.22,23.15 17.42,41.61 23.19,62.47 7.07,25.56 13.1,42.24 15.28,42.24 1.93,0 -4.94,-98.03 -4.25,-97.96 39.33,4.2 54.65,-42.68 78.28,-49.61 7.55,-2.21 27.56,3.61 32.33,-1.18 4.56,-4.59 -1.5,-44.56 -0.73,-61.16 2,-43.32 12.8,-70.28 14.1,-71.99 2.81,-3.65 78.15,-15 73.48,-25.93 -8.98,-20.95 -47.31,-54.18 -48.63,-87.52 -1.92,-48.81 43.91,-145.83 45.31,-176.13 2.92,-63.27 -1.63,-314 -123.1,-469.97 -112.46,-144.4 -121.01,-213.93 -328.45,-262.55 -207.45,-48.62 -555.35,60.51 -555.35,60.51 -70.48,29.67 -100.36,77.4 -119.51,130.47 -27.8,77.03 -25.25,165.49 -11.22,250.92z"/>
     <path class="fil2 str2" d="M1235.31 3786.75c0,0 15.03,38.37 33.49,41.59 47.99,4.05 87.58,5.91 103.73,-5.39 24.71,-17.31 -116.18,-64.67 -137.22,-36.2z"/>
     <path class="fil2 str2" d="M1030.86 3843.64c-8.9,42.26 -38.95,95.36 -44.96,131.22 -5.52,32.94 3.86,48.76 13.49,60.27 13.57,16.22 41.9,7.63 41.64,6.16 -0.1,-0.59 -22.92,7.4 -35.27,-3.58 -12.56,-11.16 -18.69,-37.15 -12.2,-62.26 4.17,-16.18 11.74,-29.99 22.8,-60.62 15.91,-44.06 38.87,-104.2 45.33,-118.97 -6.17,-9.26 -17.84,-13.04 -29.38,-15.7 -17.05,-3.93 -38.82,5.53 -37.94,14.48 1.01,10.24 -0.11,20.42 5.95,30.33 10.56,17.3 19.93,13.98 30.54,18.67z"/>
     <path class="fil2 str2" d="M1121.29 4033.13c8.72,5.68 11.25,12.63 23.93,15.35 7.19,1.54 22.96,-0.78 37.78,-7.91 10.65,-5.12 16.91,-13.41 21.89,-22.56 1.57,-2.88 -3.78,19.33 -21.15,29.06 -16.77,9.39 -37.43,12.5 -42.09,12.27 -9.5,-0.48 -22.27,-9.59 -32.24,-9.46 -18.5,0.25 -31.75,-0.38 -31.18,-6.64 1.05,-11.37 26.58,-20.85 43.06,-10.11z"/>
     <path class="fil2 str2" d="M1020.72 3679.75c7.42,2.33 21.28,50.46 14.73,50.11 -26.98,-1.45 -42.59,-3.32 -83.92,-4.17 -7.63,-0.15 -22.47,-23.41 -25.41,-53.5 -3.33,-34.15 34.62,-101.13 35.74,-100.52 0.62,0.34 -16.18,40.39 -23.18,67.3 -5.42,20.85 2.42,35.3 5.69,35.34 27.24,0.33 56.77,-0.7 76.35,5.44z"/>
     <path class="fil2 str2" d="M1157.54 3702.85c-14.35,1.31 -4.68,43.21 7.02,42.67 63.92,-2.99 126.77,-3.96 190.15,-5.94 9.45,1.75 27.76,3.89 49.08,11.74 38.89,14.34 78.01,38.97 77.87,38.5 -6.27,-21.09 -74.33,-83.15 -126.41,-90.75 -36.66,-5.35 -133.67,-2.09 -197.71,3.78z"/>
     <path class="fil2 str2" d="M992.62 4207.29c3.87,-7.47 27.03,-27.17 35.65,-28.08 9.5,-1.01 52.79,13.89 58.05,13.07 16.51,-2.59 27.24,-6.54 46.2,-7.79 7.7,-0.51 60.32,16.29 77.51,24.5 18.79,8.97 47.79,7.04 47.42,10.23 -1.68,14.67 -108.95,58.56 -161.6,59.72 -24.46,0.53 -71.07,-17.96 -89.19,-43.56l-9.18 -12.96c-1.8,-3.6 -6.7,-11.57 -4.86,-15.13z"/>
     <path class="fil2 str2" d="M1005.82 4099.51c-1.74,3.92 -29.06,44.07 -21.83,89.4 1.58,9.96 7.73,18.09 9.71,28.54 1.23,6.46 -0.51,20 0.81,26.59 17.73,88.66 45.72,178.57 58.27,198.73 8.31,13.37 26.36,26.6 35.94,35.93 28.43,27.68 137.85,42.37 181.35,39.25 8.76,-0.62 5.13,66.97 26.61,71.56 94.94,20.3 167.96,-60.8 218.14,-105.23 42.88,-37.96 203.71,-194.55 244.97,-264.98 8.48,-14.47 -12.35,-131.81 -13.75,-130.47 -1.68,1.61 6.67,99.89 -5.41,123.36 -5.36,10.41 -41.17,63.16 -89.29,112.73 -60.93,62.76 -137.55,124.38 -152.19,131.8 -38.67,19.63 -301.93,63.89 -399.22,1.63 -41.03,-26.26 -73.08,-125.06 -92.63,-214.44 -2,-9.17 -0.94,-19.85 -2.75,-28.68 -2.34,-11.48 -8,-21.05 -9.91,-31.69 -6.91,-38.47 11.18,-84.03 11.18,-84.03z"/>
     <path class="fil2" d="M1088.54 4515.68c-6.72,4.71 -27.55,118.04 -42.38,170.38 -27.36,63.1 -75.03,176.47 -69.92,182.18 8.9,9.93 84.81,-27.62 123.96,-47.1 58.43,-29.07 101.71,-73.1 153.9,-87.43 24.58,-6.75 51.99,2.86 82.35,5.75 6.98,0.66 -48.94,-96.24 -69.07,-138.3 -14.78,-30.87 -11.93,-55.62 -15.18,-56.09 -4.69,-0.68 -46.4,-2.4 -80.61,-7.17 -40.94,-5.72 -83.05,-22.22 -83.05,-22.22z"/>
     <path class="fil2" d="M1948.64 4394.95c0,0 -21.6,125.16 -49.83,237.21 -13.4,53.17 -28.24,95.51 -45.25,134.46 -11.98,27.45 50.04,-42.69 79.96,-41.06 37.08,2.04 77.79,48.03 99.12,50.88 0,0 27,-51.61 50.21,-63.24 16.87,-8.45 119.42,-60.15 116.46,-71.91 -17.38,-68.98 -236.4,-245.65 -250.67,-246.34z"/>
     <path class="fil2" d="M1601.82 4987.03c-17,-8.17 -52.62,-61.82 -101.61,-112.23 -58.02,-59.7 -130.28,-107.85 -138.25,-109.26 -48.59,-8.59 -83.74,-12.55 -95.19,-11.12 -10.02,1.24 -69.92,43.64 -137.98,80.67 -84.31,45.87 -179.61,80.42 -177.4,55.78 8.16,-90.65 51.15,-150.54 73.47,-238.78 7.93,-31.35 38.19,-123.87 27.02,-117.76 -204.18,111.48 -459.51,184.66 -652.59,314.4 -58.74,39.47 -15.07,104.5 103.5,356.99 79.54,169.37 405.84,743.24 757.08,1039.06 12.96,10.91 706.05,588.5 1192.22,749.93 29.96,9.94 -67.63,-194.86 -309.33,-941.61 -102.42,-316.45 -197.87,-865.77 -144.71,-1176.84 3.53,-20.69 24.47,-71.21 21.44,-73.47 -23.55,-17.53 -79.06,-48.84 -85.43,-49 -7.51,-0.18 -54.55,31.75 -84.03,53.87 -73.36,55.05 -236.02,185.23 -248.21,179.37z"/>
     <path class="fil2 str2" d="M1443.17 4576.39c-3,12.72 27.6,76.34 38.2,95.03 9.69,17.09 44.65,47.28 52.37,41.15 12.29,-9.76 -17.64,-39.49 -25.03,-58.4 -13.82,-35.37 -3.38,-73.47 -38.72,-96.1 -7.46,-4.78 -24.78,9.69 -26.82,18.32z"/>
    </g>
   </g>
   <path class="fil3" d="M240.22 1538.83l0 101.6 0.42 58.42c0,36.54 0.43,63.21 1.27,80.15 40.36,2.96 83.54,4.51 129.69,4.51 30.9,0 56.86,-1.41 77.89,-4.09 13.55,-1.69 27.94,-5.22 43.04,-10.72 6.91,-24.27 13.97,-54.61 21.17,-91.02l27.09 0c-7.34,60.54 -11.01,100.89 -11.01,121.07l0.85 18.63c-31.75,2.26 -62.94,3.39 -93.56,3.39l-64.91 -0.99c-71.83,-1.55 -124.46,-2.4 -158.19,-2.4 -32.31,0 -75.21,0.85 -128.69,2.54l0 -26.25 12.84 0c23.99,0 39.09,-2.4 45.3,-7.05 6.21,-4.66 10.3,-15.67 12.42,-33.02 2.11,-17.22 3.1,-55.46 3.1,-114.59l0 -226.62c0,-37.11 -0.85,-67.45 -2.68,-91.16 -1.84,-23.56 -3.67,-37.68 -5.79,-42.19 -2.11,-4.52 -5.08,-8.04 -8.89,-10.58 -3.81,-2.4 -15.66,-4.66 -35.56,-6.64l-31.75 -3.24 0 -26.25 44.74 0 43.74 1.27c24.55,0.85 43.18,1.27 55.88,1.27l158.89 -2.12 75.36 -0.42c25.68,-0.28 51.5,0.57 77.75,2.54 -10.73,32.74 -16.65,75.35 -17.78,127.85l-27.09 0c0,-30.34 -1.56,-55.6 -4.52,-75.78 -32.74,-12.13 -72.81,-18.2 -120.37,-18.2 -37.82,0 -77.47,1.69 -118.96,4.94 0.29,25.96 0,51.78 -0.84,77.75l-0.85 63.64 0 83.96c27.66,1.7 51.93,2.54 73.1,2.54 66.32,0 103.85,-2.26 112.74,-6.91 8.75,-4.66 13.13,-18.91 13.13,-42.9l0 -27.23 27.09 0c-1.97,41.76 -2.96,75.07 -2.96,100.04 0,26.25 0.99,57.29 2.96,93l-27.09 0 0 -23.99c0,-26.39 -5.22,-42.48 -15.67,-48.4 -10.44,-5.93 -47.27,-8.89 -110.63,-8.89 -23.28,0 -47.55,0.84 -72.67,2.54zm507.86 0l0 141.81c0,56.45 2.96,89.33 9.03,98.78 6.07,9.46 21.59,14.25 46.28,14.25l29.35 0 0 26.25c-52.35,-1.69 -94.12,-2.54 -125.3,-2.54 -31.33,0 -71.97,0.85 -121.92,2.54l0 -26.25 33.02 0c23.7,0 38.24,-4.51 43.6,-13.54 5.36,-9.18 8.04,-42.2 8.04,-99.35l0 -311.29c0,-55.74 -2.96,-88.19 -8.89,-97.37 -5.92,-9.03 -21.3,-13.54 -46,-13.54l-29.77 0 0 -26.25c45.72,1.69 86.78,2.54 123.47,2.54l237.35 -4.23c24.69,0 48.12,1.13 70.13,3.38 -8.75,29.78 -13.54,71.69 -14.39,125.59l-27.1 0c-1.69,-28.64 -4.93,-54.18 -9.87,-76.9 -37.54,-9.88 -75.5,-14.82 -113.88,-14.82 -33.44,0 -66.18,1.84 -98.21,5.36 -3.25,35.85 -4.94,68.44 -4.94,97.65l0 131.52c16.37,0.56 32.45,0.85 48.4,0.85 40.92,0 76.76,-1.13 107.67,-3.25 10.44,-0.56 17.35,-2.96 21.16,-6.91 3.67,-3.96 6.78,-14.68 9.18,-32.04l4.09 -31.46 26.24 0c-1.97,50.37 -2.96,82.83 -2.96,97.08l0.42 97.65 -27.09 0 0 -31.75c0,-25.4 -4.8,-40.78 -14.39,-46.29 -9.6,-5.5 -46.29,-8.32 -110.21,-8.32 -17.5,0 -38.38,0.28 -62.51,0.85zm618.63 -16.94c27.09,38.81 60.54,83.82 100.47,135.33l79.45 102.59c14.11,17.64 23.42,27.65 28.08,30.19 4.66,2.4 9.6,3.67 14.53,3.67l10.73 0 0 26.25c-22.86,-1.69 -42.76,-2.54 -59.83,-2.54 -15.81,0 -32.32,0.85 -49.67,2.54l-146.48 -197.27c-27.37,-36.41 -56.58,-71.83 -87.77,-106.54l4.09 -14.11c16.09,1.41 27.94,2.11 35.7,2.11 46.01,0 82.13,-11.85 108.24,-35.56 26.1,-23.7 39.08,-55.31 39.08,-95.11 0,-35.42 -11,-63.22 -33.16,-83.25 -22.01,-19.9 -53.9,-29.92 -95.53,-29.92 -28.93,0 -58.14,5.36 -87.35,16.09 -3.24,43.74 -4.94,90.59 -4.94,140.4l0 199.39c0,97.09 2.4,150.99 7.06,161.58 4.66,10.58 19.76,15.94 45.44,15.94l32.17 0 0 26.25c-45.72,-1.69 -83.54,-2.54 -113.59,-2.54 -23.71,0 -66.61,0.85 -128.56,2.54l0 -26.25 30.91 0c23.7,0 37.67,-5.22 42.05,-15.52 4.37,-10.3 6.63,-64.49 6.63,-162.7l0 -198.4c0,-85.38 -2.54,-133.07 -7.62,-143.23 -5.08,-10.16 -21.59,-15.24 -49.67,-15.24l-22.3 0 0 -26.25c51.23,1.69 90.46,2.54 117.41,2.54 18.2,0 44.45,-0.7 78.6,-2.12 39.79,-1.41 68.3,-2.11 85.65,-2.11 47.7,0 83.82,5.08 108.52,15.1 24.69,10.02 43.46,24.55 56.3,43.6 12.84,19.05 19.19,41.77 19.19,68.3 0,38.95 -13.97,73.24 -42.05,103.01 -27.94,29.77 -68.58,50.24 -121.78,61.24zm427.15 16.94l0 101.6 0.42 58.42c0,36.54 0.43,63.21 1.27,80.15 40.36,2.96 83.54,4.51 129.69,4.51 30.9,0 56.86,-1.41 77.89,-4.09 13.55,-1.69 27.94,-5.22 43.04,-10.72 6.91,-24.27 13.97,-54.61 21.17,-91.02l27.09 0c-7.34,60.54 -11.01,100.89 -11.01,121.07l0.85 18.63c-31.75,2.26 -62.94,3.39 -93.56,3.39l-64.91 -0.99c-71.83,-1.55 -124.46,-2.4 -158.19,-2.4 -32.31,0 -75.21,0.85 -128.69,2.54l0 -26.25 12.84 0c23.99,0 39.09,-2.4 45.3,-7.05 6.21,-4.66 10.3,-15.67 12.42,-33.02 2.11,-17.22 3.1,-55.46 3.1,-114.59l0 -226.62c0,-37.11 -0.85,-67.45 -2.68,-91.16 -1.84,-23.56 -3.67,-37.68 -5.79,-42.19 -2.11,-4.52 -5.08,-8.04 -8.89,-10.58 -3.81,-2.4 -15.66,-4.66 -35.56,-6.64l-31.75 -3.24 0 -26.25 44.74 0 43.74 1.27c24.55,0.85 43.18,1.27 55.88,1.27l158.89 -2.12 75.36 -0.42c25.68,-0.28 51.5,0.57 77.75,2.54 -10.73,32.74 -16.65,75.35 -17.78,127.85l-27.09 0c0,-30.34 -1.56,-55.6 -4.52,-75.78 -32.74,-12.13 -72.81,-18.2 -120.37,-18.2 -37.82,0 -77.47,1.69 -118.96,4.94 0.29,25.96 0,51.78 -0.84,77.75l-0.85 63.64 0 83.96c27.66,1.7 51.93,2.54 73.1,2.54 66.32,0 103.85,-2.26 112.74,-6.91 8.75,-4.66 13.13,-18.91 13.13,-42.9l0 -27.23 27.09 0c-1.97,41.76 -2.96,75.07 -2.96,100.04 0,26.25 0.99,57.29 2.96,93l-27.09 0 0 -23.99c0,-26.39 -5.22,-42.48 -15.67,-48.4 -10.44,-5.93 -47.27,-8.89 -110.63,-8.89 -23.28,0 -47.55,0.84 -72.67,2.54zm954.9 -217.32l-123.05 255.56c-46.14,95.81 -83.96,179.63 -113.6,251.32l-17.78 0c-10.16,-24.42 -39.08,-86.93 -87.06,-187.82l-147.04 -304.52 0 316.93c0,73.81 2.96,115.72 8.89,125.74 5.93,10.01 24.41,14.95 55.32,14.95l15.38 0 0 26.25c-38.38,-1.69 -69.43,-2.54 -93.42,-2.54 -17.36,0 -52.07,0.85 -103.86,2.54l0 -26.25 26.96 0c18.2,0 30.33,-2.68 36.4,-7.9 6.07,-5.22 9.74,-14.67 11.15,-28.36 3.39,-38.53 5.08,-80.01 5.08,-124.6l0 -233.54c0,-56.45 -1.27,-93.7 -3.67,-111.76 -1.13,-9.46 -5.22,-16.51 -12.13,-21.45 -7.06,-4.94 -21.03,-7.48 -41.91,-7.48l-21.88 0 0 -26.25c47.84,1.69 77.9,2.54 90.31,2.54 15.67,0 37.96,-0.85 66.75,-2.54 33.3,74.37 71.69,156.21 115.15,245.82l108.51 224.22 100.9 -207.71c35.42,-72.67 75.92,-160.02 121.35,-262.33 34.43,1.69 58.71,2.54 72.68,2.54 16.22,0 45.58,-0.85 88.05,-2.54l0 26.25 -26.95 0c-24.27,0 -39.23,4.23 -44.59,12.56 -5.37,8.46 -8.05,38.52 -8.05,90.59l0 301.56c0,67.17 2.83,105.69 8.47,115.57 5.64,9.87 21.59,14.81 47.55,14.81l23.57 0 0 26.25c-38.38,-1.69 -74.93,-2.54 -109.93,-2.54 -38.66,0 -79.02,0.85 -121.21,2.54l0 -26.25 27.37 0c21.74,0 34.86,-4.79 39.52,-14.25 4.51,-9.45 6.77,-50.23 6.77,-122.34l0 -335.57zm194.59 204.33c0,-90.59 29.21,-163.55 87.63,-218.86 58.42,-55.46 136.18,-83.12 233.54,-83.12 95.25,0 170.04,25.69 224.23,77.05 54.05,51.37 81.14,119.66 81.14,204.75 0,91.73 -31.47,168.49 -94.26,230.16 -62.8,61.66 -141.96,92.57 -237.64,92.57 -59.69,0 -111.33,-12.14 -154.51,-36.41 -43.32,-24.13 -77.47,-59.55 -102.45,-106.12 -25.12,-46.56 -37.68,-99.9 -37.68,-160.02zm83.82 -33.86c0,62.37 10.73,116.55 32.04,162.7 21.3,46.14 49.95,80.57 85.79,103.57 35.84,23.01 76.77,34.58 122.77,34.58 42.76,0 80.01,-9.74 112.04,-29.35 31.89,-19.48 57.01,-48.69 75.36,-87.64 18.34,-38.8 27.51,-86.07 27.51,-141.67 0,-58.42 -10.16,-108.37 -30.34,-149.72 -20.32,-41.49 -48.12,-72.67 -83.39,-93.56 -35.28,-21.02 -76.91,-31.47 -125.17,-31.47 -44.17,0 -82.13,9.18 -114.16,27.66 -31.89,18.49 -57.01,45.58 -75.21,81.28 -18.21,35.56 -27.24,76.91 -27.24,123.62zm1921.92 131.94c-4.09,23.28 -6.21,46.84 -6.21,70.98 0,25.4 1.97,54.04 5.93,85.79 -36.69,14.39 -78.04,25.97 -124.18,34.57 -46.15,8.75 -90.17,13.13 -132.37,13.13 -65.05,0 -122.06,-12.7 -171.16,-38.24 -49.25,-25.4 -87.07,-60.82 -113.46,-106.12 -26.39,-45.44 -39.65,-96.8 -39.65,-154.38 0,-59.55 14.25,-112.46 42.62,-158.89 28.36,-46.42 67.87,-82.55 118.53,-108.23 50.66,-25.82 114.86,-38.67 192.48,-38.67 31.6,0 60.82,2.12 87.63,6.21 26.67,4.1 61.52,12.42 104.42,24.7l35.14 9.45c-7.48,29.21 -13.41,69.99 -17.78,122.2l-26.25 0 0 -27.23c0,-26.95 -2.26,-42.76 -6.63,-47.41 -8.19,-8.75 -30.06,-19.76 -65.48,-32.74 -35.56,-13.12 -76.06,-19.62 -121.78,-19.62 -80.86,0 -142.66,21.74 -185.56,65.34 -46.71,47.27 -70.13,109.93 -70.13,187.96 0,74.93 21.16,138.01 63.36,189.23 49.53,60.54 117.26,90.88 203.06,90.88 44.59,0 92.99,-9.88 145.06,-29.5 1.69,-23.14 2.54,-47.97 2.54,-74.22 0,-34.01 -0.57,-53.48 -1.69,-58.56 -1.13,-5.22 -3.11,-8.47 -5.93,-10.02 -2.96,-1.55 -17.36,-3.39 -43.32,-5.65l-48.97 -4.09 0 -26.24c63.22,2.82 110.21,4.23 140.83,4.23 26.53,0 49.25,-1.41 68.3,-4.23l0 20.32 -29.35 19.05zm381.28 -102.03c27.09,38.81 60.54,83.82 100.47,135.33l79.45 102.59c14.11,17.64 23.42,27.65 28.08,30.19 4.66,2.4 9.6,3.67 14.53,3.67l10.73 0 0 26.25c-22.86,-1.69 -42.76,-2.54 -59.83,-2.54 -15.81,0 -32.32,0.85 -49.67,2.54l-146.48 -197.27c-27.37,-36.41 -56.58,-71.83 -87.77,-106.54l4.09 -14.11c16.09,1.41 27.94,2.11 35.7,2.11 46.01,0 82.13,-11.85 108.24,-35.56 26.1,-23.7 39.08,-55.31 39.08,-95.11 0,-35.42 -11,-63.22 -33.16,-83.25 -22.01,-19.9 -53.9,-29.92 -95.53,-29.92 -28.93,0 -58.14,5.36 -87.35,16.09 -3.24,43.74 -4.94,90.59 -4.94,140.4l0 199.39c0,97.09 2.4,150.99 7.06,161.58 4.66,10.58 19.76,15.94 45.44,15.94l32.17 0 0 26.25c-45.72,-1.69 -83.54,-2.54 -113.59,-2.54 -23.71,0 -66.61,0.85 -128.56,2.54l0 -26.25 30.91 0c23.7,0 37.67,-5.22 42.05,-15.52 4.37,-10.3 6.63,-64.49 6.63,-162.7l0 -198.4c0,-85.38 -2.54,-133.07 -7.62,-143.23 -5.08,-10.16 -21.59,-15.24 -49.67,-15.24l-22.3 0 0 -26.25c51.23,1.69 90.46,2.54 117.41,2.54 18.2,0 44.45,-0.7 78.6,-2.12 39.79,-1.41 68.3,-2.11 85.65,-2.11 47.7,0 83.82,5.08 108.52,15.1 24.69,10.02 43.46,24.55 56.3,43.6 12.84,19.05 19.19,41.77 19.19,68.3 0,38.95 -13.97,73.24 -42.05,103.01 -27.94,29.77 -68.58,50.24 -121.78,61.24zm258.66 3.95c0,-90.59 29.21,-163.55 87.63,-218.86 58.42,-55.46 136.18,-83.12 233.54,-83.12 95.25,0 170.04,25.69 224.23,77.05 54.05,51.37 81.14,119.66 81.14,204.75 0,91.73 -31.47,168.49 -94.26,230.16 -62.8,61.66 -141.96,92.57 -237.64,92.57 -59.69,0 -111.33,-12.14 -154.51,-36.41 -43.32,-24.13 -77.47,-59.55 -102.45,-106.12 -25.12,-46.56 -37.68,-99.9 -37.68,-160.02zm83.82 -33.86c0,62.37 10.73,116.55 32.04,162.7 21.3,46.14 49.95,80.57 85.79,103.57 35.84,23.01 76.77,34.58 122.77,34.58 42.76,0 80.01,-9.74 112.04,-29.35 31.89,-19.48 57.01,-48.69 75.36,-87.64 18.34,-38.8 27.51,-86.07 27.51,-141.67 0,-58.42 -10.16,-108.37 -30.34,-149.72 -20.32,-41.49 -48.12,-72.67 -83.39,-93.56 -35.28,-21.02 -76.91,-31.47 -125.17,-31.47 -44.17,0 -82.13,9.18 -114.16,27.66 -31.89,18.49 -57.01,45.58 -75.21,81.28 -18.21,35.56 -27.24,76.91 -27.24,123.62zm578.42 -233.4l0 -26.25c56.44,1.69 97.5,2.54 123.19,2.54 26.95,0 66.6,-0.85 118.95,-2.54l0 26.25 -30.19 0c-25.83,0 -41.35,4.94 -46.57,14.81 -5.22,10.02 -7.9,54.76 -7.9,134.63l0 161.85c0,59.13 3.24,100.33 9.73,123.47 6.5,23.15 23.15,42.62 50.24,58.56 26.95,15.95 63.08,23.99 108.23,23.99 46.57,0 85.8,-8.46 117.83,-25.54 22.01,-11.85 38.1,-30.2 48.4,-55.17 10.16,-24.98 15.24,-72.25 15.24,-141.82l0 -155.65c0,-72.1 -3.24,-113.31 -9.73,-123.61 -6.5,-10.3 -24.28,-15.52 -53.49,-15.52l-21.44 0 0 -26.25c57.15,1.69 93.41,2.54 108.79,2.54 25.12,0 56.31,-0.85 93.56,-2.54l0 26.25 -28.22 0c-21.73,0 -35.85,5.78 -42.05,17.5 -6.21,11.71 -9.32,52.77 -9.32,123.33l0 154.8c0,70.69 -3.53,118.39 -10.58,143.08 -7.06,24.7 -19.76,46.85 -38.38,66.75 -18.63,19.76 -43.47,35.42 -74.51,46.99 -31.05,11.57 -67.45,17.36 -109.36,17.36 -43.32,0 -81.14,-5.22 -113.74,-15.53 -32.59,-10.3 -57.01,-23 -73.38,-38.1 -16.37,-15.24 -28.22,-33.72 -35.56,-55.59 -7.33,-21.88 -11,-59.13 -11,-111.62l0.84 -78.46 0 -126.01c0,-77.62 -2.25,-121.08 -6.77,-130.53 -4.52,-9.32 -19.05,-13.97 -43.6,-13.97l-29.21 0zm826.63 19.47c-1.97,39.51 -2.96,81.7 -2.96,126.58l0 235.37c0,82.69 2.54,128.98 7.48,138.86 4.94,9.87 21.16,14.81 48.68,14.81l28.5 0 0 26.25c-48.82,-1.69 -87.2,-2.54 -115.28,-2.54 -24.84,0 -68.87,0.85 -131.94,2.54l0 -26.25 37.11 0c17.36,0 28.5,-2.11 33.44,-6.35 5.08,-4.37 8.19,-12.98 9.6,-26.1 1.41,-12.98 2.82,-52.92 4.51,-119.81l0 -220.27 -1.27 -85.37c-0.56,-35.56 -4.23,-57.3 -11.29,-65.2 -7.05,-8.04 -24.13,-11.99 -51.5,-11.99l-20.6 0 0 -26.25c34.43,1.13 78.17,1.69 131.09,1.69 31.19,0 65.76,-0.84 103.86,-2.54 24.97,-1.12 44.02,-1.69 57.01,-1.69 66.74,0 115.29,12.14 145.62,36.41 30.06,24.41 45.02,57.29 45.02,98.63 0,30.2 -8.61,59.13 -25.97,86.93 -17.35,27.66 -41.91,49.95 -73.8,66.89 -31.75,16.79 -65.76,25.26 -101.74,25.26 -16.51,0 -37.25,-2.54 -61.95,-7.77l-8.32 -31.18c24.27,6.21 44.45,9.31 60.68,9.31 37.95,0 68.15,-11.43 90.45,-34.43 22.29,-23 33.44,-54.47 33.44,-94.4 0,-38.53 -11.85,-68.58 -35.7,-90.17 -23.85,-21.59 -59.41,-32.46 -106.54,-32.46 -26.81,0 -56.02,5.08 -87.63,15.24zm-3480.33 -94.82l0 -39.52c60.91,1.98 116.55,2.97 167.26,2.97 44.78,0 94,-0.99 147.51,-2.97l0 39.52c-37.21,2.63 -59.6,5.59 -66.68,9.05 -7.24,3.29 -10.86,8.73 -10.86,16.13 0,9.55 13.5,47.75 40.5,114.75l136.48 332.88 108.98 -269.17c40.17,-99.27 60.26,-159.03 60.26,-178.95 0,-7.57 -3.46,-13.01 -10.38,-16.3 -6.91,-3.29 -30.45,-6.09 -70.79,-8.39l0 -39.52c58.78,1.98 97.96,2.97 117.88,2.97 20.91,0 58.11,-0.99 111.78,-2.97l0 39.52c-32.43,3.29 -51.36,7.07 -56.47,11.68 -7.73,6.1 -26.34,43.3 -55.97,111.46l-147.51 355.43c-30.13,70.14 -51.53,126.28 -64.37,168.42l-70.13 0 -169.9 -409.43c-39.02,-93.35 -66.51,-156.73 -82.31,-189.99 -8.89,-19.75 -16.8,-31.77 -23.38,-36.22 -6.59,-4.28 -27.17,-8.06 -61.9,-11.35z"/>
  </g>
 </g>
</svg>
